#format: frame checksums
#version: 2
#hash: MD5
#tb 0: 1001/30000
#media_type 0: video
#codec_id 0: rawvideo
#dimensions 0: 16x8
#sar 0: 1/1
#stream#, dts,        pts, duration,     size, hash
0,          0,          0,        1,      192, 68dccd167f9aa18df0840ebb8715eb68
0,          1,          1,        1,      192, 65c90bb99fdbee7abf21031d34cb18dc
0,          2,          2,        1,      192, 9ef1feb2dcbd4d73f3ee84e9e1cd2668
0,          3,          3,        1,      192, b6281f7c88e9aa132d3902046f8cde5a
0,          4,          4,        1,      192, 4b439b716a294bddf9f56a229705907b
0,          5,          5,        1,      192, d42c0a6f0d24522c90bc2233bc1df2c7
0,          6,          6,        1,      192, 74b763a5a12c4c4a581efb1818a92970
0,          7,          7,        1,      192, 0c3a0916ddfda5abdd3ac382f036e71f
0,          8,          8,        1,      192, 26ff590e8ae726f70e8b36f5eaee7a19
0,          9,          9,        1,      192, 30fa5810995d7132387ea585c4a1cc3a
